<svg width="765" height="433" viewBox="0 0 765 433" fill="none" xmlns="http://www.w3.org/2000/svg">
<path d="M765 0H0V432.997H765V0Z" fill="#95A5D5"/>
<path d="M641.665 93.455C640.22 94.39 638.86 95.325 637.415 96.26C636.735 94.73 636.055 93.115 635.46 91.5" stroke="white" stroke-width="5" stroke-miterlimit="10"/>
<path d="M632.4 81.8949C629.765 72.2899 627.98 62.43 625.175 52.825C620.925 38.375 613.53 23.67 600.27 16.53C587.01 9.38995 567.12 13.47 562.02 27.58C559.64 34.04 560.66 41.265 562.615 47.81C573.325 84.7 609.45 107.99 629 141.055C635.63 152.36 640.305 164.77 643.365 177.605C644.13 180.92 644.81 184.405 643.62 187.55C642.6 190.355 640.22 192.395 637.84 194.18C606.05 217.725 559.81 207.355 527 185.34C494.19 163.325 468.945 131.535 436.56 108.755C389.725 75.86 331.16 64.215 274.125 60.39C229.67 57.415 183.855 59.03 142.545 75.605C98.515 93.285 62.135 127.54 37.995 168.425C11.815 212.455 0.170037 268.64 20.485 315.22C79.645 350.92 156.23 345.735 223.975 351.77" stroke="white" stroke-width="5" stroke-miterlimit="10" stroke-dasharray="11.99 11.99"/>
<path d="M228.99 352.195C230.69 352.365 232.39 352.535 234.09 352.705C232.39 352.79 230.69 352.96 228.99 353.045" stroke="white" stroke-width="5" stroke-miterlimit="10"/>
<path d="M218.62 353.81C165.665 357.55 111.01 362.735 58.225 356.105" stroke="white" stroke-width="5" stroke-miterlimit="10" stroke-dasharray="12.2 12.2"/>
<path d="M53.1251 355.34C51.4251 355.085 49.725 354.83 48.11 354.575C49.3 355.765 50.5751 356.955 51.8501 358.06" stroke="white" stroke-width="5" stroke-miterlimit="10"/>
<path d="M59.585 364.69C75.225 377.015 93.415 386.535 112.2 392.91C149.26 405.575 189.04 407.87 228.225 408.21C279.48 408.635 330.82 405.915 381.735 399.455C413.78 395.375 445.995 392.655 478.04 388.83C504.645 385.6 528.19 376.93 554.115 372.595C601.545 364.605 646 344.8 673.455 304.425C675.58 301.365 677.535 298.135 679.405 294.82C697.34 263.285 687.055 220.445 678.3 187.465C673.37 168.935 669.545 145.135 685.185 134C691.815 129.325 700.23 128.39 708.22 126.945C726.155 123.715 744.43 116.235 754.8 101.275C765.085 86.315 763.725 62.515 748.255 52.91C732.615 43.22 712.385 51.465 696.32 60.305C679.15 69.74 662.32 79.855 645.915 90.65" stroke="white" stroke-width="5" stroke-miterlimit="10" stroke-dasharray="11.97 11.97"/>
</svg>
