<svg width="353" height="466" viewBox="0 0 353 466" fill="none" xmlns="http://www.w3.org/2000/svg">
<g clip-path="url(#clip0)">
<path d="M28.6074 109.012C23.7496 96.0602 21.3207 83.6479 22.4002 72.315C28.8772 8.63462 111.46 -23.7452 158.419 20.2374C209.695 68.2675 170.023 216.136 161.387 277.387C129.811 240.42 51.8168 168.915 28.6074 109.012Z" fill="#98C3C1"/>
<path d="M290.658 252.023C333.839 245.817 371.352 297.355 343.015 335.671C329.251 354.289 303.613 354.289 283.911 366.972C256.114 385.05 236.683 414.732 210.775 435.509C190.804 381.273 226.158 261.467 290.658 252.023Z" fill="#98C3C1"/>
<path d="M33.195 345.115C-2.42882 354.559 -13.7637 408.526 21.3204 429.843C38.5926 440.096 58.5635 431.731 77.9947 435.239C105.792 440.636 131.161 457.905 158.418 465.73C155.18 415.541 86.6308 331.084 33.195 345.115Z" fill="#98C3C1"/>
</g>
<defs>
<clipPath id="clip0">
<rect width="353" height="466" fill="white"/>
</clipPath>
</defs>
</svg>
