<svg width="751" height="395" viewBox="0 0 751 395" fill="none" xmlns="http://www.w3.org/2000/svg">
<path d="M737.862 39.8014C722.227 30.1176 702.005 38.3573 685.945 47.1916C665.808 58.3194 646.18 70.2967 627.061 83.1234C620.944 69.3623 618.989 54.1571 614.826 39.7164C610.577 25.2758 603.185 10.5802 589.93 3.44484C576.674 -3.69055 556.792 0.386815 551.693 14.4877C549.314 20.9435 550.334 28.1639 552.288 34.7047C562.994 71.5709 599.106 94.8458 618.649 127.89C625.277 139.187 629.95 151.589 633.009 164.416C633.774 167.729 634.454 171.212 633.264 174.355C632.245 177.158 629.865 179.196 627.486 180.98C595.708 204.51 549.484 194.147 516.686 172.146C483.888 150.145 458.652 118.376 426.278 95.6103C379.46 62.7366 320.916 51.0991 263.901 47.2766C219.462 44.3035 173.664 45.9174 132.369 62.4817C88.3543 80.1503 51.9873 114.383 27.856 155.242C1.68534 199.328 -9.9555 255.392 10.2673 301.942C72.38 339.403 153.696 331.843 223.796 339.488C162.788 343.31 98.8056 350.956 37.8824 341.357C55.726 358.686 78.3279 371.512 101.949 379.667C138.996 392.324 178.762 394.617 217.933 394.957C269.17 395.382 320.491 392.664 371.388 386.208C403.422 382.13 435.625 379.412 467.659 375.59C494.254 372.362 517.791 363.697 543.706 359.365C591.119 351.38 635.558 331.588 663.004 291.239C665.128 288.181 667.082 284.953 668.951 281.64C686.88 250.126 676.599 207.313 667.847 174.355C662.919 155.836 659.095 132.052 674.729 120.924C681.357 116.252 689.769 115.318 697.756 113.874C715.685 110.646 733.953 103.17 744.319 88.2201C754.686 73.1848 753.326 49.4002 737.862 39.8014Z" fill="#95A5D5"/>
</svg>
