<svg width="751" height="562" viewBox="0 0 751 562" fill="none" xmlns="http://www.w3.org/2000/svg">
<g clip-path="url(#clip0)">
<path d="M737.83 163.145C722.197 153.458 701.976 161.7 685.917 170.537C665.781 181.669 646.154 193.65 627.037 206.48C620.92 192.715 618.965 177.505 614.802 163.06C610.554 148.615 603.162 133.915 589.908 126.777C576.653 119.64 556.771 123.718 551.674 137.823C549.295 144.281 550.314 151.504 552.268 158.047C562.974 194.924 599.084 218.206 618.625 251.26C625.253 262.561 629.926 274.967 632.984 287.798C633.749 291.112 634.429 294.595 633.239 297.739C632.22 300.543 629.841 302.583 627.462 304.367C595.685 327.904 549.464 317.538 516.668 295.53C483.872 273.523 458.638 241.743 426.266 218.971C379.451 186.087 320.91 174.446 263.899 170.622C219.463 167.648 173.667 169.263 132.374 185.832C88.3629 203.506 51.9982 237.75 27.8683 278.621C1.69927 322.721 -9.94085 378.802 10.2807 425.366C72.3896 462.839 153.701 455.276 223.796 462.923C162.792 466.747 98.8135 474.395 37.8941 464.793C55.7366 482.127 78.3371 494.958 101.957 503.115C139.002 515.776 178.765 518.07 217.934 518.41C269.167 518.835 320.486 516.115 371.379 509.658C403.411 505.579 435.612 502.86 467.644 499.036C494.238 495.807 517.773 487.14 543.687 482.807C591.097 474.819 635.533 455.021 662.977 414.66C665.101 411.601 667.055 408.372 668.924 405.058C686.852 373.534 676.571 330.708 667.82 297.739C662.892 279.216 659.068 255.424 674.702 244.292C681.329 239.619 689.741 238.684 697.727 237.24C715.655 234.011 733.922 226.533 744.288 211.578C754.653 196.539 753.294 172.747 737.83 163.145Z" fill="#95A5D5"/>
<path d="M316.407 530.731C326.178 541.437 338.583 549.764 350.818 553.843C364.157 558.261 378.261 560.131 392.195 562C388.797 552.568 385.483 543.221 382.085 533.79C379.366 526.227 376.647 518.58 371.804 512.207C355.831 490.964 325.413 472.44 298.735 475.159C293.722 495.043 302.303 515.351 316.407 530.731Z" fill="#5E6BAF"/>
<path d="M105.611 34.3284C103.996 30.2498 103.232 26.3411 103.657 22.7723C105.696 2.71909 131.695 -7.47746 146.479 6.37285C162.622 21.4977 150.132 68.062 147.413 87.3505C137.387 75.7094 112.833 53.192 105.611 34.3284Z" fill="#98C3C1"/>
<path d="M188.026 79.3632C201.62 77.4088 213.431 93.6383 204.509 105.704C200.176 111.567 192.104 111.567 185.902 115.561C177.151 121.254 171.033 130.601 162.877 137.144C156.589 120.064 167.72 82.3371 188.026 79.3632Z" fill="#98C3C1"/>
<path d="M106.97 108.678C95.7548 111.652 92.1863 128.647 103.232 135.359C108.669 138.588 114.957 135.954 121.074 137.059C129.826 138.758 137.812 144.196 146.394 146.66C145.459 130.856 123.793 104.26 106.97 108.678Z" fill="#98C3C1"/>
<path d="M179.7 424.601C188.24 424.601 195.163 417.678 195.163 409.137C195.163 400.596 188.24 393.672 179.7 393.672C171.159 393.672 164.236 400.596 164.236 409.137C164.236 417.678 171.159 424.601 179.7 424.601Z" fill="#5E6BAF"/>
<path d="M155.949 235.417C160.396 235.417 164 231.742 164 227.208C164 222.675 160.396 219 155.949 219C151.503 219 147.899 222.675 147.899 227.208C147.899 231.742 151.503 235.417 155.949 235.417Z" fill="white"/>
<path d="M116.572 265C126.83 265 135.145 256.522 135.145 246.064C135.145 235.605 126.83 227.127 116.572 227.127C106.315 227.127 98 235.605 98 246.064C98 256.522 106.315 265 116.572 265Z" fill="white"/>
</g>
<defs>
<clipPath id="clip0">
<rect width="751" height="562" fill="white"/>
</clipPath>
</defs>
</svg>
