<svg width="767" height="560" viewBox="0 0 767 560" fill="none" xmlns="http://www.w3.org/2000/svg">
<g clip-path="url(#clip0)">
<path d="M643.265 212.664C641.798 213.613 640.418 214.562 638.951 215.511C638.261 213.958 637.57 212.319 636.966 210.679" stroke="white" stroke-width="5" stroke-miterlimit="10"/>
<path d="M633.774 200.931C631.099 191.182 629.287 181.174 626.439 171.425C622.125 156.759 614.618 141.833 601.158 134.586C587.697 127.339 567.506 131.481 562.329 145.802C559.913 152.359 560.948 159.692 562.933 166.335C573.805 203.778 610.476 227.416 630.322 260.977C637.053 272.451 641.798 285.047 644.905 298.074C645.681 301.439 646.372 304.976 645.164 308.168C644.128 311.015 641.712 313.086 639.296 314.898C607.025 338.795 560.085 328.27 526.779 305.925C493.472 283.58 467.845 251.314 434.97 228.193C387.426 194.805 327.975 182.986 270.077 179.103C224.949 176.084 178.44 177.723 136.505 194.546C91.8088 212.491 54.8782 247.259 30.3728 288.757C3.88291 333.533 -7.93833 390.473 12.5978 437.751C72.6532 473.985 150.397 468.723 219.168 474.848" stroke="white" stroke-width="5" stroke-miterlimit="10" stroke-dasharray="11.99 11.99"/>
<path d="M224.345 475.366C226.07 475.538 227.796 475.711 229.522 475.883C227.796 475.97 226.07 476.142 224.345 476.229" stroke="white" stroke-width="5" stroke-miterlimit="10"/>
<path d="M213.818 476.919C160.061 480.715 104.579 485.978 50.9952 479.248" stroke="white" stroke-width="5" stroke-miterlimit="10" stroke-dasharray="12.2 12.2"/>
<path d="M45.8181 478.558C44.0923 478.299 42.3666 478.04 40.7272 477.781C41.9352 478.989 43.2295 480.197 44.5238 481.319" stroke="white" stroke-width="5" stroke-miterlimit="10"/>
<path d="M52.2896 487.962C68.1663 500.471 86.6316 510.134 105.701 516.605C143.322 529.459 183.704 531.789 223.482 532.134C275.513 532.565 327.63 529.804 379.315 523.248C411.845 519.106 444.548 516.346 477.078 512.463C504.085 509.185 527.987 500.385 554.304 495.985C602.452 487.876 647.58 467.774 675.45 426.794C677.607 423.688 679.592 420.41 681.49 417.045C699.697 385.038 689.256 341.556 680.369 308.082C675.364 289.274 671.481 265.118 687.358 253.816C694.088 249.071 702.63 248.122 710.741 246.655C728.948 243.377 747.499 235.785 758.026 220.601C768.467 205.417 767.086 181.26 751.382 171.511C735.506 161.676 714.969 170.045 698.661 179.017C681.231 188.593 664.147 198.86 647.493 209.817" stroke="white" stroke-width="5" stroke-miterlimit="10" stroke-dasharray="11.97 11.97"/>
<path d="M184.308 85.7557C183.963 87.6537 183.704 89.2929 183.531 90.8458C182.496 89.638 181.374 88.3439 180.08 86.9635" stroke="white" stroke-width="5" stroke-miterlimit="10"/>
<path d="M173.091 79.6303C161.528 67.3795 146.514 51.1601 140.992 37.0112C139.353 32.8701 138.576 28.9016 139.008 25.2781C141.078 4.91757 167.482 -5.43522 182.496 8.62733C196.561 21.7409 189.312 58.2345 185.171 80.7518" stroke="white" stroke-width="5" stroke-miterlimit="10" stroke-dasharray="11.72 11.72"/>
<path d="M203.205 138.037C201.91 139.245 200.616 140.367 199.322 141.488C198.804 139.935 198.373 138.296 198.027 136.484" stroke="white" stroke-width="5" stroke-miterlimit="10"/>
<path d="M197.596 126.218C198.804 107.842 209.072 84.9792 224.776 82.7361C238.582 80.7518 250.576 97.23 241.516 109.481C237.115 115.434 228.918 115.434 222.619 119.489C216.579 123.457 211.747 129.065 206.656 134.328" stroke="white" stroke-width="5" stroke-miterlimit="10" stroke-dasharray="11.84 11.84"/>
<path d="M177.664 149.425C179.303 150.116 180.943 150.633 182.582 151.151C182.496 149.512 182.151 147.872 181.719 146.061" stroke="white" stroke-width="5" stroke-miterlimit="10"/>
<path d="M177.75 136.743C170.157 122.853 154.97 109.136 142.459 112.5C131.069 115.52 127.445 132.775 138.662 139.59C144.185 142.869 150.57 140.194 156.782 141.316C162.391 142.351 167.655 144.939 173.004 147.355" stroke="white" stroke-width="5" stroke-miterlimit="10" stroke-dasharray="11.65 11.65"/>
<path d="M387.081 556.635C388.807 556.894 390.532 557.067 392.258 557.326C391.654 555.686 391.136 554.047 390.532 552.494" stroke="white" stroke-width="5" stroke-miterlimit="10"/>
<path d="M387.081 543.004C385.355 538.259 383.629 533.514 381.99 528.769C379.229 521.091 376.468 513.326 371.549 506.856C357.398 487.962 331.858 471.139 307.525 469.154" stroke="white" stroke-width="5" stroke-miterlimit="10" stroke-dasharray="11.67 11.67"/>
<path d="M302.52 468.895C300.794 468.895 299.069 468.982 297.343 469.154C296.912 470.88 296.566 472.519 296.394 474.244" stroke="white" stroke-width="5" stroke-miterlimit="10"/>
<path d="M296.049 484.77C297.17 499.695 304.677 514.016 315.291 525.663C325.214 536.534 337.811 544.988 350.237 549.13C360.505 552.494 371.204 554.478 381.904 556.031" stroke="white" stroke-width="5" stroke-miterlimit="10" stroke-dasharray="12.19 12.19"/>
<path d="M190.693 420.41C199.366 420.41 206.397 413.38 206.397 404.708C206.397 396.036 199.366 389.006 190.693 389.006C182.02 389.006 174.989 396.036 174.989 404.708C174.989 413.38 182.02 420.41 190.693 420.41Z" stroke="white" stroke-width="5" stroke-miterlimit="10" stroke-dasharray="11.46 11.46"/>
<path d="M170.157 227.33C174.97 227.33 178.872 223.429 178.872 218.617C178.872 213.804 174.97 209.903 170.157 209.903C165.344 209.903 161.442 213.804 161.442 218.617C161.442 223.429 165.344 227.33 170.157 227.33Z" stroke="white" stroke-width="5" stroke-miterlimit="10" stroke-dasharray="10.57 10.57"/>
<path d="M127.531 258.734C138.635 258.734 147.636 249.734 147.636 238.632C147.636 227.53 138.635 218.53 127.531 218.53C116.428 218.53 107.427 227.53 107.427 238.632C107.427 249.734 116.428 258.734 127.531 258.734Z" stroke="white" stroke-width="5" stroke-miterlimit="10" stroke-dasharray="12.17 12.17"/>
</g>
<defs>
<clipPath id="clip0">
<rect width="767" height="560" fill="white"/>
</clipPath>
</defs>
</svg>
