<svg width="356" height="470" viewBox="0 0 356 470" fill="none" xmlns="http://www.w3.org/2000/svg">
<g clip-path="url(#clip0)">
<path d="M163.378 276.24C163.221 277.284 163.065 278.327 162.908 279.318C162.231 278.536 161.553 277.753 160.875 276.971" stroke="white" stroke-width="5" stroke-miterlimit="10"/>
<path d="M156.705 272.328C122.038 233.826 51.818 166.944 30.0274 110.601C25.0229 97.6102 22.5727 85.1937 23.6675 73.8206C30.0796 10.0688 112.811 -22.5374 159.833 21.5463C209.565 68.1341 173.96 208.472 163.795 273.162" stroke="white" stroke-width="5" stroke-miterlimit="10" stroke-dasharray="11.95 11.95"/>
<path d="M214.83 435.881C214.048 436.559 213.214 437.185 212.38 437.863C212.015 436.872 211.702 435.933 211.39 434.89" stroke="white" stroke-width="5" stroke-miterlimit="10"/>
<path d="M209.774 428.89C196.167 371.294 231.043 262.728 292.296 254.016C335.565 247.86 373.203 299.508 344.844 337.801C330.977 356.478 305.277 356.53 285.78 369.26C259.715 386.267 240.843 413.5 217.228 433.898" stroke="white" stroke-width="5" stroke-miterlimit="10" stroke-dasharray="11.99 11.99"/>
<path d="M156.965 467.287C157.956 467.6 158.946 467.913 159.937 468.226C159.884 467.183 159.78 466.139 159.676 465.096" stroke="white" stroke-width="5" stroke-miterlimit="10"/>
<path d="M158.738 458.888C148.624 408.126 84.7643 333.941 34.5625 347.296C-1.14698 356.791 -12.5636 410.839 22.6767 432.125C39.8798 442.506 59.8458 433.951 79.3948 437.655C105.199 442.559 128.971 457.792 154.046 466.348" stroke="white" stroke-width="5" stroke-miterlimit="10" stroke-dasharray="12.11 12.11"/>
</g>
<defs>
<clipPath id="clip0">
<rect width="356" height="470" fill="white"/>
</clipPath>
</defs>
</svg>
