<svg width="757" height="401" viewBox="0 0 757 401" fill="none" xmlns="http://www.w3.org/2000/svg">
<path d="M634.513 83.3721C633.068 84.3071 631.708 85.2421 630.263 86.1771C629.583 84.6471 628.903 83.0321 628.308 81.4171" stroke="white" stroke-width="5" stroke-miterlimit="10"/>
<path d="M625.248 71.8121C622.613 62.2071 620.828 52.3471 618.023 42.7421C613.773 28.2921 606.378 13.5871 593.118 6.44706C579.858 -0.692936 559.968 3.38706 554.868 17.4971C552.488 23.9571 553.508 31.1821 555.463 37.7271C566.173 74.6171 602.298 97.9071 621.848 130.972C628.478 142.277 633.153 154.687 636.213 167.522C636.978 170.837 637.658 174.322 636.468 177.467C635.448 180.272 633.068 182.312 630.688 184.097C598.898 207.642 552.658 197.272 519.848 175.257C487.038 153.242 461.793 121.452 429.408 98.6721C382.573 65.7771 324.008 54.1321 266.973 50.3071C222.518 47.3321 176.703 48.9471 135.393 65.5221C91.3627 83.2021 54.9827 117.457 30.8427 158.342C4.66272 202.372 -6.98228 258.557 13.3327 305.137C72.4927 340.837 149.078 335.652 216.823 341.687" stroke="white" stroke-width="5" stroke-miterlimit="10" stroke-dasharray="11.99 11.99"/>
<path d="M221.838 342.112C223.538 342.282 225.238 342.452 226.938 342.622C225.238 342.707 223.538 342.877 221.838 342.962" stroke="white" stroke-width="5" stroke-miterlimit="10"/>
<path d="M211.468 343.727C158.513 347.467 103.858 352.652 51.0727 346.022" stroke="white" stroke-width="5" stroke-miterlimit="10" stroke-dasharray="12.2 12.2"/>
<path d="M45.9727 345.257C44.2727 345.002 42.5727 344.747 40.9577 344.492C42.1477 345.682 43.4227 346.872 44.6977 347.977" stroke="white" stroke-width="5" stroke-miterlimit="10"/>
<path d="M52.4327 354.607C68.0727 366.932 86.2627 376.452 105.048 382.827C142.108 395.492 181.888 397.787 221.073 398.127C272.328 398.552 323.668 395.832 374.583 389.372C406.628 385.292 438.843 382.572 470.888 378.747C497.493 375.517 521.038 366.847 546.963 362.512C594.393 354.522 638.848 334.717 666.303 294.342C668.428 291.282 670.383 288.052 672.253 284.737C690.188 253.202 679.903 210.362 671.148 177.382C666.218 158.852 662.393 135.052 678.033 123.917C684.663 119.242 693.078 118.307 701.068 116.862C719.003 113.632 737.278 106.152 747.648 91.1921C757.933 76.2321 756.573 52.4321 741.103 42.8271C725.463 33.1371 705.233 41.3821 689.168 50.2221C671.998 59.6571 655.168 69.7721 638.763 80.5671" stroke="white" stroke-width="5" stroke-miterlimit="10" stroke-dasharray="11.97 11.97"/>
</svg>
